<svg id="SvgjsSvg1024" xmlns="http://www.w3.org/2000/svg" version="1.1" xmlns:xlink="http://www.w3.org/1999/xlink" xmlns:svgjs="http://svgjs.com/svgjs" width="29" height="113" viewBox="0 0 29 113"><title>Rectangle 8 copy</title><desc>Created with Avocode.</desc><defs id="SvgjsDefs1025"></defs><path id="SvgjsPath1026" d="M1731.79 7620.4L1752.79 7673.389999999999C1753.3999999999999 7674.929999999999 1752.6399999999999 7676.669999999999 1751.1 7677.289999999999C1749.56 7677.899999999999 1747.82 7677.139999999999 1747.2099999999998 7675.599999999999L1726.2099999999998 7622.61C1725.6 7621.07 1726.36 7619.32 1727.8999999999999 7618.71C1729.4399999999998 7618.1 1731.1799999999998 7618.86 1731.79 7620.4ZM1731.79 7729.1L1752.79 7676.110000000001C1753.3999999999999 7674.570000000001 1752.6399999999999 7672.820000000001 1751.1 7672.210000000001C1749.56 7671.600000000001 1747.82 7672.360000000001 1747.2099999999998 7673.900000000001L1726.2099999999998 7726.89C1725.6 7728.43 1726.36 7730.17 1727.8999999999999 7730.780000000001C1729.4399999999998 7731.400000000001 1731.1799999999998 7730.64 1731.79 7729.1Z " fill="#e6e6e6" fill-opacity="1" transform="matrix(1,0,0,1,-1725,-7618)"></path></svg>